<svg width="463" height="443" viewBox="0 0 463 443" fill="none" xmlns="http://www.w3.org/2000/svg">
<path d="M3 147C3 107.235 35.2355 75 75 75H317C356.764 75 389 107.235 389 147V368C389 407.764 356.764 440 317 440H75C35.2355 440 3 407.764 3 368V147Z" fill="#FADDE1" stroke="#AA4465" stroke-width="8"/>
<path d="M151.6 243.8V261L75.6001 308.4L66.6001 296L137.2 252.4L66.6001 209L74.8001 196.2L151.6 243.8Z" fill="#AA4465"/>
<path d="M322.979 265.727L414.629 255.006" stroke="#E6B6C2" stroke-width="6"/>
<path d="M323 289H415" stroke="#E6B6C2" stroke-width="6"/>
<path d="M323.371 311.727L415.021 322.447" stroke="#E6B6C2" stroke-width="6"/>
<path d="M310.348 11.3222L348.853 83.6372C349.967 85.729 350.53 87.9105 350.621 90.0526C345.274 93.2533 341.599 98.741 340.617 104.848C339.037 105.402 337.317 105.701 335.493 105.687L257.336 105.064C245.965 104.973 238.826 92.7557 244.33 82.8044L283.982 11.1121C289.742 0.697773 304.755 0.817388 310.348 11.3222ZM348.094 115.073C347.013 113.009 346.466 110.861 346.376 108.752C351.724 105.55 355.397 100.061 356.379 93.956C357.96 93.402 359.68 93.1028 361.503 93.1173L444.896 93.7818C456.221 93.872 463.365 105.999 457.954 115.948L415.634 193.754C409.902 204.293 394.731 204.172 389.168 193.543L348.094 115.073Z" fill="#FF8FA3" stroke="#FB6F92" stroke-width="6"/>
<path d="M380 104C380 120.016 367.016 133 351 133C334.984 133 322 120.016 322 104C322 87.9837 334.984 75 351 75C367.016 75 380 87.9837 380 104Z" fill="#FF8FA3" stroke="#FB6F92" stroke-width="6"/>
</svg>